# Wavefront Obj file
# 
# verts: 52 uv-s: 152
mtllib chompchompfloor.mtl

g pCube1
#pivot 0.000000 0.000000 0.000000

v -8.721704 -0.079184 29.938141
v 8.721704 -0.079184 29.938141
v -8.721704 0.079184 29.938141
v 8.721704 0.079184 29.938141
v -8.721704 0.079184 4.969917
v 8.721704 0.079184 4.969917
v 8.721704 -0.079184 4.969917
v -8.721704 -0.079184 4.969917
v -8.721704 -0.079184 -20.725853
v 8.721704 -0.079184 -20.725853
v 8.721704 0.079184 -20.725853
v -8.721704 0.079184 -20.725853
v -8.721704 -0.079184 -47.185204
v 8.721704 -0.079184 -47.185204
v 8.721704 0.079184 -47.185211
v -8.721704 0.079184 -47.185211
v 18.396179 0.079184 4.969917
v 18.396179 -0.079184 4.969917
v 18.396193 -0.079184 -20.725853
v 18.396193 0.079184 -20.725853
v -18.396187 0.079184 -20.725853
v -18.396187 -0.079184 -20.725853
v -18.396187 -0.079184 4.969917
v -18.396187 0.079184 4.969917
v 26.919001 -0.079184 -20.725853
v 26.919001 0.079184 -20.725853
v 26.919001 -0.079184 -47.185204
v 26.919001 0.079184 -47.185211
v -26.919001 0.079184 -47.185211
v -26.919001 -0.079184 -47.185204
v -26.919001 -0.079184 -20.725853
v -26.919001 0.079184 -20.725853
v 43.000816 -0.079184 -47.185204
v 43.000816 0.079184 -47.185211
v 43.000816 -0.079184 -132.553207
v 43.000816 0.079184 -132.553207
v -43.000816 -0.079184 -132.553207
v -43.000816 -0.079184 -47.185204
v -43.000816 0.079184 -47.185211
v -43.000816 0.079184 -132.553207
v 43.000816 0.079184 -273.006317
v 43.000816 -0.079184 -273.006317
v -43.000816 -0.079184 -273.006317
v -43.000816 0.079184 -273.006317
v 89.040398 0.079184 -132.553207
v 89.040398 -0.079184 -132.553207
v 89.040398 -0.079184 -273.006317
v 89.040398 0.079184 -273.006317
v -89.040398 0.079184 -132.553207
v -89.040398 -0.079184 -132.553207
v -89.040398 0.079184 -273.006317
v -89.040398 -0.079184 -273.006317
# 52 positions

vt 0.886004 0.871864
vt 0.886004 0.824716
vt 0.886432 0.824716
vt 0.886432 0.871864
vt 0.938938 0.894169
vt 0.938510 0.894169
vt 0.938510 0.824716
vt 0.938938 0.824716
vt 0.932375 0.894169
vt 0.931947 0.894169
vt 0.931947 0.824716
vt 0.932375 0.824716
vt 0.219086 0.001895
vt 0.266234 0.001895
vt 0.266234 0.069381
vt 0.219086 0.069381
vt 0.925383 0.892203
vt 0.925383 0.824716
vt 0.925811 0.824716
vt 0.925811 0.892203
vt 0.708468 0.753238
vt 0.755616 0.753238
vt 0.755616 0.820725
vt 0.708468 0.820725
vt 0.919248 0.892203
vt 0.918820 0.892203
vt 0.918820 0.824716
vt 0.919248 0.824716
vt 0.952065 0.896233
vt 0.951637 0.896233
vt 0.951637 0.824716
vt 0.952065 0.824716
vt 0.945501 0.896233
vt 0.945073 0.896233
vt 0.945073 0.824716
vt 0.945501 0.824716
vt 0.991445 0.616259
vt 0.991017 0.616259
vt 0.991017 0.385517
vt 0.991445 0.385517
vt 0.984453 0.717963
vt 0.984453 0.487222
vt 0.984881 0.487222
vt 0.984881 0.717963
vt 0.879868 0.850865
vt 0.879440 0.850865
vt 0.879440 0.824716
vt 0.879868 0.824716
vt 0.873305 0.850865
vt 0.872877 0.850865
vt 0.872877 0.824716
vt 0.873305 0.824716
vt 0.866314 0.824716
vt 0.866742 0.824716
vt 0.866742 0.850865
vt 0.866314 0.850865
vt 0.682318 0.753238
vt 0.682318 0.683785
vt 0.708468 0.683785
vt 0.755616 0.683785
vt 0.781765 0.683785
vt 0.781765 0.753238
vt 0.859750 0.824716
vt 0.860179 0.824716
vt 0.860179 0.850865
vt 0.859750 0.850865
vt 0.266234 0.138835
vt 0.219086 0.138835
vt 0.192937 0.138835
vt 0.192937 0.069381
vt 0.292383 0.069381
vt 0.292383 0.138835
vt 0.912685 0.873902
vt 0.912257 0.873902
vt 0.912257 0.824716
vt 0.912685 0.824716
vt 0.906121 0.873902
vt 0.905693 0.873902
vt 0.905693 0.824716
vt 0.906121 0.824716
vt 0.899130 0.824716
vt 0.899558 0.824716
vt 0.899558 0.873902
vt 0.899130 0.873902
vt 0.659282 0.683785
vt 0.659282 0.612268
vt 0.708468 0.612268
vt 0.755616 0.612268
vt 0.804801 0.612268
vt 0.804801 0.683785
vt 0.892567 0.824716
vt 0.892995 0.824716
vt 0.892995 0.873902
vt 0.892567 0.873902
vt 0.219086 0.210352
vt 0.169900 0.210352
vt 0.169900 0.138835
vt 0.315419 0.138835
vt 0.315419 0.210352
vt 0.266234 0.210352
vt 0.965191 0.917369
vt 0.964763 0.917369
vt 0.964763 0.824716
vt 0.965191 0.824716
vt 0.615815 0.612268
vt 0.615815 0.381526
vt 0.848269 0.381526
vt 0.848269 0.612268
vt 0.958200 0.824716
vt 0.958628 0.824716
vt 0.958628 0.917369
vt 0.958200 0.917369
vt 0.126433 0.441093
vt 0.126433 0.210352
vt 0.358887 0.210352
vt 0.358887 0.441093
vt 0.980989 0.126335
vt 0.980989 0.358790
vt 0.980561 0.358790
vt 0.980561 0.126335
vt 0.988785 0.381526
vt 0.988357 0.381526
vt 0.988357 0.001895
vt 0.988785 0.001895
vt 0.997580 0.001895
vt 0.998008 0.001895
vt 0.998008 0.381526
vt 0.997580 0.381526
vt 0.978318 0.949157
vt 0.977890 0.949157
vt 0.977890 0.824716
vt 0.978318 0.824716
vt 0.848269 0.001895
vt 0.972709 0.001895
vt 0.972709 0.381526
vt 0.491374 0.381526
vt 0.491374 0.001895
vt 0.615815 0.001895
vt 0.980561 0.001895
vt 0.980989 0.001895
vt 0.971327 0.824716
vt 0.971755 0.824716
vt 0.971755 0.949157
vt 0.971327 0.949157
vt 0.126433 0.820725
vt 0.001992 0.820725
vt 0.001992 0.441093
vt 0.483327 0.441093
vt 0.483327 0.820725
vt 0.358887 0.820725
vt 0.980989 0.483230
vt 0.980561 0.483230
# 152 texture coordinates

vn 0.000000 0.000000 1.000000
vn 0.000000 0.000000 1.000000
vn 0.000000 0.000000 1.000000
vn 0.000000 0.000000 1.000000
vn 1.000000 0.000000 0.000001
vn 1.000000 0.000000 0.000001
vn 1.000000 0.000000 0.000001
vn 1.000000 0.000000 0.000001
vn -1.000000 0.000000 0.000000
vn -1.000000 0.000000 0.000000
vn -1.000000 0.000000 0.000000
vn -1.000000 0.000000 0.000000
vn 0.000000 1.000000 0.000000
vn 0.000000 1.000000 0.000000
vn 0.000000 1.000000 0.000000
vn 0.000000 1.000000 0.000000
vn 1.000000 0.000000 0.000000
vn 1.000000 0.000000 0.000000
vn 1.000000 0.000000 0.000000
vn 1.000000 0.000000 0.000000
vn 0.000000 -1.000000 0.000000
vn 0.000000 -1.000000 0.000000
vn 0.000000 -1.000000 0.000000
vn 0.000000 -1.000000 0.000000
vn -1.000000 0.000000 0.000000
vn -1.000000 0.000000 0.000000
vn -1.000000 0.000000 0.000000
vn -1.000000 0.000000 0.000000
vn 1.000000 0.000000 0.000000
vn 1.000000 0.000000 0.000000
vn 1.000000 0.000000 0.000000
vn 1.000000 0.000000 0.000000
vn -1.000000 0.000000 0.000000
vn -1.000000 0.000000 0.000000
vn -1.000000 0.000000 0.000000
vn -1.000000 0.000000 0.000000
vn 1.000000 0.000000 0.000000
vn 1.000000 0.000000 0.000000
vn 1.000000 0.000000 0.000000
vn 1.000000 0.000000 0.000000
vn -1.000000 0.000000 0.000000
vn -1.000000 0.000000 0.000000
vn -1.000000 0.000000 0.000000
vn -1.000000 0.000000 0.000000
vn 0.000000 0.000000 1.000000
vn 0.000000 0.000000 1.000000
vn 0.000000 0.000000 1.000000
vn 0.000000 0.000000 1.000000
vn 0.000000 0.000000 -1.000000
vn 0.000000 0.000000 -1.000000
vn 0.000000 0.000000 -1.000000
vn 0.000000 0.000000 -1.000000
vn 0.000000 0.000000 -1.000000
vn 0.000000 0.000000 -1.000000
vn 0.000000 0.000000 -1.000000
vn 0.000000 0.000000 -1.000000
vn 0.000000 -1.000000 0.000000
vn 0.000000 -1.000000 0.000000
vn 0.000000 -1.000000 0.000000
vn 0.000000 -1.000000 0.000000
vn 0.000000 -1.000000 0.000000
vn 0.000000 -1.000000 0.000000
vn 0.000000 0.000000 1.000000
vn 0.000000 0.000000 1.000000
vn 0.000000 0.000000 1.000000
vn 0.000000 0.000000 1.000000
vn 0.000000 1.000000 0.000000
vn 0.000000 1.000000 0.000000
vn 0.000000 1.000000 0.000000
vn 0.000000 1.000000 0.000000
vn 0.000000 1.000000 0.000000
vn 0.000000 1.000000 0.000000
vn 0.000000 0.000000 1.000000
vn 0.000000 0.000000 1.000000
vn 0.000000 0.000000 1.000000
vn 0.000000 0.000000 1.000000
vn 0.000000 -0.000048 -1.000000
vn 0.000000 -0.000048 -1.000000
vn 0.000000 -0.000048 -1.000000
vn 0.000000 -0.000048 -1.000000
vn 0.000000 -0.000048 -1.000000
vn 0.000000 -0.000048 -1.000000
vn 0.000000 -0.000048 -1.000000
vn 0.000000 -0.000048 -1.000000
vn 0.000000 -1.000000 0.000000
vn 0.000000 -1.000000 0.000000
vn 0.000000 -1.000000 0.000000
vn 0.000000 -1.000000 0.000000
vn 0.000000 -1.000000 0.000000
vn 0.000000 -1.000000 0.000000
vn 0.000000 0.000000 1.000000
vn 0.000000 0.000000 1.000000
vn 0.000000 0.000000 1.000000
vn 0.000000 0.000000 1.000000
vn 0.000000 1.000000 0.000000
vn 0.000000 1.000000 0.000000
vn 0.000000 1.000000 0.000000
vn 0.000000 1.000000 0.000000
vn 0.000000 1.000000 0.000000
vn 0.000000 1.000000 0.000000
vn 0.000000 0.000048 1.000000
vn 0.000000 0.000048 1.000000
vn 0.000000 0.000048 1.000000
vn 0.000000 0.000048 1.000000
vn 0.000000 -1.000000 0.000000
vn 0.000000 -1.000000 0.000000
vn 0.000000 -1.000000 0.000000
vn 0.000000 -1.000000 0.000000
vn 0.000000 0.000048 1.000000
vn 0.000000 0.000048 1.000000
vn 0.000000 0.000048 1.000000
vn 0.000000 0.000048 1.000000
vn 0.000000 1.000000 0.000000
vn 0.000000 1.000000 0.000000
vn 0.000000 1.000000 0.000000
vn 0.000000 1.000000 0.000000
vn 0.000000 0.000000 -1.000000
vn 0.000000 0.000000 -1.000000
vn 0.000000 0.000000 -1.000000
vn 0.000000 0.000000 -1.000000
vn 1.000000 0.000000 0.000000
vn 1.000000 0.000000 0.000000
vn 1.000000 0.000000 0.000000
vn 1.000000 0.000000 0.000000
vn -1.000000 0.000000 0.000000
vn -1.000000 0.000000 0.000000
vn -1.000000 0.000000 0.000000
vn -1.000000 0.000000 0.000000
vn 0.000000 0.000000 1.000000
vn 0.000000 0.000000 1.000000
vn 0.000000 0.000000 1.000000
vn 0.000000 0.000000 1.000000
vn 0.000000 -1.000000 0.000000
vn 0.000000 -1.000000 0.000000
vn 0.000000 -1.000000 0.000000
vn 0.000000 -1.000000 0.000000
vn 0.000000 -1.000000 0.000000
vn 0.000000 -1.000000 0.000000
vn 0.000000 0.000000 -1.000000
vn 0.000000 0.000000 -1.000000
vn 0.000000 0.000000 1.000000
vn 0.000000 0.000000 1.000000
vn 0.000000 0.000000 1.000000
vn 0.000000 0.000000 1.000000
vn 0.000000 1.000000 0.000000
vn 0.000000 1.000000 0.000000
vn 0.000000 1.000000 0.000000
vn 0.000000 1.000000 0.000000
vn 0.000000 1.000000 0.000000
vn 0.000000 1.000000 0.000000
vn 0.000000 0.000000 -1.000000
vn 0.000000 0.000000 -1.000000
# 152 normals

usemtl initialShadingGroup
s 1
f 1/1/1 2/2/2 4/3/3 3/4/4
s 2
f 17/5/5 18/6/6 19/7/7 20/8/8
s 3
f 21/9/9 22/10/10 23/11/11 24/12/12
s 4
f 3/13/13 4/14/14 6/15/15 5/16/16
f 11/67/67 12/68/68 21/69/69 24/70/70 5/16/16 6/15/15 17/71/71 20/72/72
f 16/95/95 29/96/96 32/97/97 12/68/68 11/67/67 26/98/98 28/99/99 15/100/100
f 40/113/113 39/114/114 16/95/95 15/100/100 34/115/115 36/116/116
s 5
f 2/17/17 7/18/18 6/19/19 4/20/20
s 6
f 8/21/21 7/22/22 2/23/23 1/24/24
f 7/22/22 8/21/21 23/57/57 22/58/58 9/59/59 10/60/60 19/61/61 18/62/62
s 7
f 5/25/25 8/26/26 1/27/27 3/28/28
s 8
f 26/29/29 25/30/30 27/31/31 28/32/32
s 9
f 29/33/33 30/34/34 31/35/35 32/36/36
s 10
f 34/37/37 33/38/38 35/39/39 36/40/40
s 11
f 37/41/41 38/42/42 39/43/43 40/44/44
s 12
f 6/45/45 7/46/46 18/47/47 17/48/48
s 13
f 10/49/49 11/50/50 20/51/51 19/52/52
s 14
f 12/53/53 9/54/54 22/55/55 21/56/56
s 15
f 8/63/63 5/64/64 24/65/65 23/66/66
s 16
f 11/73/73 10/74/74 25/75/75 26/76/76
s 17
f 14/77/77 15/78/78 28/79/79 27/80/80
s 18
f 16/81/81 13/82/82 30/83/83 29/84/84
s 19
f 10/60/60 9/59/59 31/85/85 30/86/86 13/87/87 14/88/88 27/89/89 25/90/90
f 14/88/88 13/87/87 38/105/105 37/106/106 35/107/107 33/108/108
f 42/133/133 47/134/134 46/135/135 35/107/107 37/106/106 50/136/136 52/137/137 43/138/138
s 20
f 9/91/91 12/92/92 32/93/93 31/94/94
s 21
f 15/101/101 14/102/102 33/103/103 34/104/104
s 22
f 13/109/109 16/110/110 39/111/111 38/112/112
s 23
f 42/117/117 43/118/118 44/119/119 41/120/120
f 42/117/117 41/120/120 48/139/139 47/140/140
f 44/119/119 43/118/118 52/151/151 51/152/152
s 24
f 45/121/121 46/122/122 47/123/123 48/124/124
s 25
f 50/125/125 49/126/126 51/127/127 52/128/128
s 26
f 36/129/129 35/130/130 46/131/131 45/132/132
s 27
f 37/141/141 40/142/142 49/143/143 50/144/144
s 28
f 44/145/145 51/146/146 49/147/147 40/113/113 36/116/116 45/148/148 48/149/149 41/150/150

# 36 faces
